<svg xmlns="http://www.w3.org/2000/svg" viewBox="0 0 102.8 77.08"><defs><style>.cls-1{fill:#1c2c54;}</style></defs><g id="Laag_2" data-name="Laag 2"><g id="Laag_1-2" data-name="Laag 1"><path class="cls-1" d="M36.66,37.42h0A36.66,36.66,0,0,1,73.32,74.08v3a0,0,0,0,1,0,0H0a0,0,0,0,1,0,0v-3A36.66,36.66,0,0,1,36.66,37.42Z"/><path class="cls-1" d="M66.14,37.42h0c-4.7,0-9.18.2-13.3,1.87,16.3,6.39,23.8,19.12,23.36,36.3v1.49h26.6V75.59C102.8,54.51,86.38,37.42,66.14,37.42Z"/><ellipse class="cls-1" cx="36.66" cy="18.71" rx="17.97" ry="18.71"/><path class="cls-1" d="M65.78,0A17.56,17.56,0,0,0,52.84,5.75a19.21,19.21,0,0,1,0,25.92,17.56,17.56,0,0,0,12.94,5.75c9.92,0,18-8.38,18-18.71S75.7,0,65.78,0Z"/></g></g></svg>