<svg xmlns="http://www.w3.org/2000/svg" viewBox="0 0 97.59 85.89"><defs><style>.cls-1{fill:#1c2c54;}</style></defs><g id="Laag_2" data-name="Laag 2"><g id="Laag_1-2" data-name="Laag 1"><path class="cls-1" d="M47.24,1.43.74,44.24a2.29,2.29,0,0,0,1.55,4h93a2.29,2.29,0,0,0,1.55-4L50.35,1.43A2.29,2.29,0,0,0,47.24,1.43Z"/><rect class="cls-1" x="68.83" width="15.23" height="33.43" rx="1.21"/><path class="cls-1" d="M13.92,46.94V80.88a5,5,0,0,0,5,5H41.11V63.05a2.43,2.43,0,0,1,2.51-2.33H54a2.43,2.43,0,0,1,2.51,2.33V85.89H78.72a5,5,0,0,0,5-5V46.94Z"/></g></g></svg>